# xmcd CD database file
#
# Track frame offsets:
#	150
#	88771
#	157111
#
# Disc length: 2492 seconds
#
# Revision: 0
# Processed by: cddbd v1.5.2PL0 Copyright (c) Steve Scherf et al.
# Submitted via: CDex 1.70beta2
#
DISCID=1e09ba03
DTITLE=Booker Ervin - The Trance
DYEAR=1900
DGENRE=Jazz
TTITLE0=The Trance
TTITLE1=Speak Low
TTITLE2=Groovin' At The Jamboree
EXTD=
EXTT0=
EXTT1=
EXTT2=
PLAYORDER=
